<svg version="1.1" id="Layer_1" xmlns="http://www.w3.org/2000/svg" xmlns:xlink="http://www.w3.org/1999/xlink" x="0px" y="0px"
	 width="100%" viewBox="0 0 1024 336" enable-background="new 0 0 1024 336" xml:space="preserve">
<path fill="#000000" opacity="1.000000" stroke="none" 
	d="
M523.789062,165.325867 
	C519.030945,155.736694 511.982819,150.240036 501.260406,150.177551 
	C490.078430,150.112411 482.579132,156.059875 476.772797,164.879532 
	C471.656403,172.651199 469.968170,181.128479 470.085144,190.456268 
	C470.381744,214.105209 469.969421,237.762375 469.995880,261.416077 
	C470.000183,265.248352 468.879883,266.697845 464.831818,266.620300 
	C456.180786,266.454681 447.517578,266.736267 438.863922,266.991150 
	C435.108459,267.101776 433.571625,265.808716 433.533936,261.806549 
	C433.350464,242.343170 433.346161,222.874268 433.191010,203.413956 
	C433.118225,194.286453 433.326965,185.137558 432.661102,176.029984 
	C432.209686,169.855865 430.650604,163.969177 426.427734,158.982880 
	C416.791748,147.604752 401.935211,147.436600 390.753265,157.245239 
	C380.438782,166.292999 377.440063,177.486542 377.379730,190.192886 
	C377.269775,213.349152 377.324310,236.506165 377.305450,259.662872 
	C377.299805,266.571838 377.021576,266.901215 369.907684,266.948883 
	C362.245026,267.000214 354.572754,266.690033 346.921417,266.980103 
	C341.929108,267.169373 340.089752,265.188019 340.117950,260.346039 
	C340.199371,246.354019 340.030273,232.360748 340.013794,218.367905 
	C339.985352,194.225632 340.000183,170.083313 339.991760,145.941010 
	C339.989746,140.127579 340.793213,134.327881 340.114410,128.498123 
	C339.696930,124.912498 341.363922,123.536919 345.081116,123.578323 
	C353.901398,123.676582 362.726929,123.420479 371.548492,123.225006 
	C374.544586,123.158607 375.635315,124.278618 375.451935,127.399902 
	C375.213135,131.464264 374.707550,135.617676 376.078278,140.415436 
	C379.563080,137.331955 382.711304,134.743286 385.636536,131.923325 
	C397.312225,120.667503 411.613770,118.242302 426.874146,120.198059 
	C440.684570,121.967987 451.975983,128.595261 459.958221,140.238739 
	C462.541931,144.007492 464.471375,142.408356 466.493805,139.875931 
	C471.653351,133.415421 477.576569,127.846107 485.342407,124.691902 
	C506.115234,116.254707 525.907288,117.466286 544.305115,131.089233 
	C558.493164,141.595016 563.398132,156.650574 564.259705,173.331985 
	C565.574707,198.791397 565.014282,224.276550 564.495544,249.753540 
	C564.407593,254.073013 564.652222,258.398499 564.693481,262.721649 
	C564.720886,265.596375 563.246765,266.906830 560.360474,266.894501 
	C551.032349,266.854675 541.703918,266.869934 532.375671,266.898499 
	C529.167725,266.908325 527.741272,265.688263 527.527283,262.179657 
	C526.349670,242.872162 527.334473,223.555161 526.967163,204.252502 
	C526.721924,191.363464 528.839111,178.224289 523.789062,165.325867 
z"/>
<path fill="#000000" opacity="1.000000" stroke="none" 
	d="
M690.798218,270.131775 
	C682.981995,270.381470 675.650269,270.302917 668.519592,268.277954 
	C658.315674,265.380249 648.883606,261.061707 641.567871,253.022888 
	C640.786926,252.164780 639.903259,251.395187 639.022156,250.636841 
	C638.811096,250.455215 638.419617,250.483292 637.351807,250.246643 
	C637.351807,254.821655 637.353455,259.242523 637.351501,263.663391 
	C637.341919,284.980957 637.230164,306.299316 637.405273,327.615356 
	C637.441040,331.965973 636.188232,333.487549 631.722107,333.307770 
	C623.403870,332.973022 615.062927,333.198761 606.731384,333.201324 
	C600.736267,333.203156 600.044556,332.577301 600.039856,326.710480 
	C599.995483,271.722717 599.974304,216.734955 599.923340,161.747223 
	C599.912964,150.585419 599.946777,139.420166 599.666992,128.263855 
	C599.567627,124.303375 600.988464,122.925629 604.828918,122.981552 
	C613.658264,123.110107 622.491699,123.031967 631.322510,122.945442 
	C634.452881,122.914772 635.717407,123.915405 635.510315,127.371132 
	C635.273926,131.314804 635.911621,135.310883 636.212341,139.944107 
	C640.358582,137.654648 642.797241,134.247757 645.886414,131.667435 
	C658.648987,121.007294 673.792969,118.519035 689.567505,119.799171 
	C716.182556,121.959030 736.309143,134.785767 747.697144,159.233887 
	C755.641541,176.289322 756.628174,194.470581 752.977539,212.944489 
	C750.648438,224.730667 746.510193,235.731018 738.830322,245.006027 
	C726.511963,259.882935 710.746338,268.604584 690.798218,270.131775 
M673.203247,238.139893 
	C688.170410,239.503586 700.681091,235.436646 709.480469,222.375504 
	C716.815063,211.488693 717.687622,199.375122 716.729187,186.924789 
	C715.484680,170.759979 703.378662,155.761932 688.216187,151.111710 
	C673.678711,146.653168 657.318115,152.179016 646.793396,165.102463 
	C634.573059,180.107971 633.968994,206.023834 645.555054,221.603546 
	C652.271667,230.635437 660.823792,236.765213 673.203247,238.139893 
z"/>
<path fill="#000000" opacity="1.000000" stroke="none" 
	d="
M185.004395,248.015289 
	C173.759705,236.510193 167.972122,222.975250 165.903687,207.401352 
	C162.454803,181.433716 167.805695,158.372665 186.963638,139.641434 
	C202.514420,124.436989 221.589600,118.687958 243.041290,119.448067 
	C254.719162,119.861855 265.704010,122.332123 276.099030,127.812508 
	C291.402802,135.880814 300.756104,148.752914 306.221680,164.677292 
	C310.370911,176.766403 311.256653,189.366318 311.109253,202.103790 
	C311.059448,206.406433 309.422028,207.385330 305.466400,207.370697 
	C273.639984,207.252960 241.812988,207.313477 209.986160,207.310745 
	C201.612381,207.310013 200.673859,208.624710 204.521454,216.093796 
	C219.670822,245.502335 256.385590,246.203491 272.832825,227.983856 
	C273.829865,226.879364 275.189575,226.084152 276.104492,224.926834 
	C279.900940,220.124649 280.713501,219.680557 285.131592,224.147125 
	C290.562195,229.637268 296.334808,234.549973 302.905762,238.560120 
	C306.040741,240.473328 304.478668,242.663773 302.901276,244.336273 
	C295.709473,251.961624 288.173706,259.068176 278.308411,263.403839 
	C257.814178,272.410706 236.790253,272.461273 215.791199,266.583466 
	C204.215530,263.343353 194.116684,256.576996 185.004395,248.015289 
M230.500381,179.813721 
	C243.472305,179.801132 256.444305,179.764832 269.416107,179.795456 
	C272.098175,179.801788 274.220459,179.396622 273.485352,175.961044 
	C271.068420,164.664871 265.740753,155.562775 254.703156,150.570557 
	C247.547119,147.333908 240.043243,147.804565 232.620789,148.367554 
	C218.598892,149.431091 203.732574,164.842804 202.775330,179.808167 
	C211.708694,179.808167 220.604462,179.808167 230.500381,179.813721 
z"/>
<path fill="#000000" opacity="1.000000" stroke="none" 
	d="
M188.272644,80.347580 
	C173.873978,89.906288 158.127533,94.190666 141.449387,95.305046 
	C134.990585,95.736618 128.466766,95.772652 122.005829,95.404900 
	C117.149307,95.128456 116.178360,97.144096 116.191223,101.498970 
	C116.316223,143.820999 116.272720,186.143524 116.280083,228.465912 
	C116.281998,239.463028 116.160538,250.462723 116.371864,261.455902 
	C116.447815,265.406921 114.816071,266.876862 111.134560,266.872803 
	C102.137314,266.862823 93.135460,266.747620 84.144547,266.999390 
	C79.277748,267.135681 77.537369,265.544800 77.554810,260.407013 
	C77.725586,210.087341 77.647659,159.766800 77.635132,109.446510 
	C77.634506,106.947426 77.664330,104.444412 77.540092,101.950188 
	C77.338333,97.899910 75.742195,95.735054 71.070076,95.799347 
	C53.911053,96.035492 36.746998,95.919868 19.584852,95.909767 
	C13.081109,95.905937 12.724621,95.546623 12.706028,89.215149 
	C12.684988,82.050400 12.898075,74.878723 12.642785,67.723137 
	C12.477522,63.090958 14.310739,61.723045 18.817177,61.741863 
	C52.972767,61.884502 87.129227,61.829235 121.285408,61.814144 
	C133.594727,61.808704 145.905792,62.146854 158.114334,59.813557 
	C167.493439,58.021023 176.250305,55.144981 184.717163,50.405750 
	C189.714325,47.608646 194.852432,45.049767 199.567810,41.743763 
	C206.548401,36.849594 210.995499,29.756325 215.801102,22.978045 
	C216.642502,21.791248 217.028885,20.191687 218.738754,19.814087 
	C224.544647,30.839680 206.462677,66.988159 188.272644,80.347580 
z"/>
<path fill="#000000" opacity="1.000000" stroke="none" 
	d="
M940.920959,96.025558 
	C941.221069,80.148254 939.917603,82.892349 954.242004,82.688339 
	C960.239685,82.602921 966.251892,82.926239 972.234985,82.621445 
	C976.951172,82.381187 978.379700,84.423538 978.307800,88.804070 
	C978.149109,98.466629 978.401001,108.136536 978.199402,117.797485 
	C978.118347,121.681419 979.424683,123.159019 983.361267,123.065826 
	C991.854980,122.864738 1000.359192,123.118286 1008.853821,122.937698 
	C1013.015381,122.849220 1014.439331,124.528419 1014.290894,128.605347 
	C1014.060669,134.928070 1014.078796,141.275024 1014.355713,147.595749 
	C1014.542725,151.866608 1013.175049,153.592636 1008.683594,153.434921 
	C1000.195007,153.136795 991.687500,153.425552 983.191833,153.262192 
	C979.529785,153.191772 978.208435,154.590500 978.229431,158.260132 
	C978.351379,179.589630 978.195374,200.921021 978.370056,222.249817 
	C978.453979,232.495148 984.897766,238.636383 995.073608,238.886337 
	C999.970093,239.006607 1004.700256,238.111237 1009.291809,236.535156 
	C1012.147827,235.554810 1013.903442,236.046173 1013.963623,239.362808 
	C1014.102722,247.026306 1014.169800,254.691086 1014.286255,262.355042 
	C1014.315369,264.274597 1013.429138,265.586487 1011.654785,266.148926 
	C992.773376,272.134338 967.985779,273.177887 951.816284,255.218414 
	C943.423767,245.896805 941.255005,234.116959 940.990784,222.196289 
	C940.525635,201.213928 940.699158,180.213547 940.894165,159.223404 
	C940.936462,154.673233 939.708191,152.843369 935.002014,153.205704 
	C930.529785,153.550003 926.007935,153.195480 921.510559,153.284439 
	C918.213074,153.349686 916.608459,152.103317 916.674622,148.592392 
	C916.809509,141.440384 917.349854,134.278915 916.270874,127.134949 
	C915.815857,124.122215 917.580200,122.924820 920.422363,122.928696 
	C925.754822,122.935966 931.089478,122.809433 936.418945,122.929337 
	C939.608337,123.001091 940.949036,121.709702 940.913391,118.514542 
	C940.831543,111.184044 940.907593,103.851784 940.920959,96.025558 
z"/>
<path fill="#000000" opacity="1.000000" stroke="none" 
	d="
M785.751099,165.000000 
	C785.737244,128.338226 785.727539,92.176491 785.708740,56.014755 
	C785.704895,48.715862 785.688904,48.708450 793.154785,48.692692 
	C801.320374,48.675457 809.489624,48.815605 817.649963,48.603287 
	C821.515869,48.502701 823.033020,49.886749 823.030212,53.781315 
	C822.981506,121.746223 823.005188,189.711166 823.011963,257.676117 
	C823.012024,258.842590 822.900757,260.017914 823.006836,261.173920 
	C823.408142,265.547333 821.377380,267.085388 817.120300,266.936737 
	C808.132874,266.622864 799.134094,266.447418 790.142456,266.520813 
	C785.873291,266.555634 785.771606,264.045349 785.774109,260.986267 
	C785.796082,234.156754 785.786804,207.327209 785.782715,180.497681 
	C785.781921,175.498459 785.762756,170.499252 785.751099,165.000000 
z"/>
<path fill="#000000" opacity="1.000000" stroke="none" 
	d="
M898.172363,192.999710 
	C898.150085,215.638962 898.030212,237.778839 898.172180,259.917023 
	C898.203247,264.765717 896.808411,266.758423 891.623474,266.523926 
	C883.152222,266.140869 874.637695,266.194824 866.164917,266.581177 
	C861.868469,266.777069 860.662048,265.335327 860.680115,261.251312 
	C860.795044,235.286636 860.730408,209.321152 860.729980,183.355942 
	C860.729736,165.049896 860.818970,146.743195 860.672302,128.438370 
	C860.643433,124.835243 861.649536,123.598770 865.403564,123.344223 
	C875.054688,122.689857 884.688904,123.635696 894.321533,123.169678 
	C898.441223,122.970367 898.197388,125.831001 898.195435,128.579071 
	C898.180481,149.885956 898.176270,171.192825 898.172363,192.999710 
z"/>
<path fill="#000000" opacity="1.000000" stroke="none" 
	d="
M900.464233,88.217453 
	C895.166626,103.860359 867.101135,104.441658 859.592407,89.351364 
	C855.305115,80.735031 855.978210,72.606064 861.295593,65.375443 
	C866.287231,58.587711 874.000916,55.641270 882.443726,56.970833 
	C899.041382,59.584625 907.251404,73.853554 900.464233,88.217453 
z"/>
</svg>